<svg width="24" height="26" viewBox="0 0 24 26" fill="none" xmlns="http://www.w3.org/2000/svg">
<path d="M5.05 9.5L6.75 6.5L5.05 3.5H1.7L0 6.5L1.7 9.5H5.05ZM11 13L12.7 10L11 7H7.65L5.95 10L7.65 13H11ZM11 6L12.7 3L11 0H7.65L5.95 3L7.65 6H11ZM16.95 9.5L18.65 6.5L16.95 3.5H13.6L11.975 6.5L13.6 9.5H16.95ZM16.95 16.5L18.65 13.5L16.95 10.5H13.6L11.975 13.5L13.6 16.5H16.95ZM10.9 20L12.7 17L11 14H7.65L5.95 17L7.65 20H10.9ZM5.05 16.5L6.75 13.5L5.05 10.5H1.7L0 13.5L1.7 16.5H5.05Z" fill="#FFB800"/>
<path d="M14.25 15.9V15.9335L14.2357 15.9639L13.4357 17.6639L13.3448 17.857L13.1939 17.7061C12.7582 17.2703 12.65 16.8275 12.65 16.3C12.65 15.7506 12.8734 15.3144 13.2939 14.8939C13.7212 14.4667 14.259 14.25 14.8 14.25C15.3455 14.25 15.7768 14.4701 16.19 14.78L16.4091 14.9443L16.1527 15.0404L14.5527 15.6404L14.5272 15.65H14.5H14.4621L14.25 15.8621V15.9ZM16.1437 22.2431L16.1412 22.2513L16.1379 22.2591C15.9828 22.621 15.7886 22.8873 15.5264 23.0107C15.2565 23.1377 14.9553 23.0954 14.6329 22.9342C14.3173 22.7764 14.0843 22.5813 13.9643 22.3264C13.8429 22.0683 13.8498 21.7762 13.9577 21.4526L13.9575 21.4525L13.9601 21.4458L15.1601 18.3459L15.2825 18.0296L15.4342 18.3329C16.2414 19.9474 16.4597 21.1898 16.1437 22.2431ZM20.3473 15.2596L20.3473 15.2595L20.3526 15.2577C20.6745 15.1504 20.969 15.1418 21.2171 15.2658C21.4652 15.3899 21.635 15.6306 21.7423 15.9526C21.8502 16.2762 21.8572 16.5683 21.7357 16.8264C21.6157 17.0813 21.3827 17.2764 21.0671 17.4342L21.0555 17.44L21.0431 17.4437C19.9898 17.7597 18.7474 17.5414 17.1329 16.7342L16.8253 16.5803L17.1473 16.4595L20.3473 15.2596ZM14.55 12.4V11.15H13.85V12.9V13.0081L13.7474 13.0423C12.5922 13.4274 11.8274 14.1922 11.4423 15.3474L11.4081 15.45H11.3H9.85V16.15H11.1H11.263L11.2495 16.3125C11.1534 17.4651 11.535 18.5168 12.2957 19.2835L12.8832 19.6752L12.987 19.7444L12.9379 19.8591L12.3404 21.2532C12.2514 21.5241 12.25 21.7975 12.25 22.2C12.25 22.7583 12.4332 23.2282 12.8212 23.8114C13.2145 24.3023 13.5913 24.6723 14.1474 24.8577C14.4197 24.9485 14.793 24.95 15.1 24.95C16.0424 24.95 16.8015 24.4814 17.38 23.71L17.4449 23.6235L17.5474 23.6577C17.8197 23.7484 18.093 23.75 18.6 23.75C19.6569 23.75 20.5197 23.3682 21.2939 22.5939C21.8272 22.0606 22.1619 21.484 22.317 20.8636C22.4722 20.2428 22.4498 19.569 22.2551 18.8386L22.226 18.7295L22.3228 18.6714C22.7778 18.3984 23.0619 17.9398 23.3584 17.2497C23.5478 16.5816 23.5472 16.013 23.3567 15.3444C23.1703 14.788 22.7988 14.4111 22.3063 14.0171C21.8333 13.6388 21.2665 13.45 20.7 13.45C20.3015 13.45 20.0295 13.4513 19.7612 13.5378L18.3744 14.3302L18.2529 14.3997L18.1752 14.2832L17.7835 13.6957C17.0119 12.9284 16.1522 12.55 15.1 12.55H14.7H14.55V12.4Z" fill="white" stroke="black" stroke-width="0.3"/>
</svg>
